<?xml version="1.0" encoding="utf-8"?>
<!-- Generator: Adobe Illustrator 22.1.0, SVG Export Plug-In . SVG Version: 6.00 Build 0)  -->
<svg version="1.1" id="Capa_1" xmlns="http://www.w3.org/2000/svg" xmlns:xlink="http://www.w3.org/1999/xlink" x="0px" y="0px"
	 viewBox="0 0 49.7 49.7" style="enable-background:new 0 0 49.7 49.7;" xml:space="preserve">
<style type="text/css">
	.st0{fill:#FFFFFF;}
</style>
<g>
	<g>
		<g>
			<path class="st0" d="M24.8,29.8c2.8,0,5-2.2,5-5c0-1.1-0.4-2.1-0.9-2.9c-0.9-1.3-2.4-2.1-4.1-2.1s-3.1,0.8-4.1,2.1
				c-0.6,0.8-0.9,1.8-0.9,2.9C19.8,27.6,22.1,29.8,24.8,29.8z"/>
			<polygon class="st0" points="35.8,18.7 35.8,14.5 35.8,13.9 35.1,13.9 30.9,13.9 30.9,18.7 			"/>
			<path class="st0" d="M24.8-0.2c-13.8,0-25,11.2-25,25s11.2,25,25,25s25-11.2,25-25S38.6-0.2,24.8-0.2z M39,21.9v11.6
				c0,3-2.5,5.5-5.5,5.5H16.1c-3,0-5.5-2.5-5.5-5.5V21.9v-5.8c0-3,2.5-5.5,5.5-5.5h17.4c3,0,5.5,2.5,5.5,5.5V21.9z"/>
			<path class="st0" d="M32.6,24.8c0,4.3-3.5,7.8-7.8,7.8S17,29.1,17,24.8c0-1,0.2-2,0.6-2.9h-4.2v11.6c0,1.5,1.2,2.7,2.7,2.7h17.4
				c1.5,0,2.7-1.2,2.7-2.7V21.9H32C32.4,22.8,32.6,23.8,32.6,24.8z"/>
		</g>
	</g>
</g>
</svg>
